<?xml version="1.0" encoding="UTF-8"?>
<!DOCTYPE svg PUBLIC "-//W3C//DTD SVG 1.1//EN" "http://www.w3.org/Graphics/SVG/1.1/DTD/svg11.dtd">
<!-- Creator: CorelDRAW 2021 (64-Bit) -->
<svg xmlns="http://www.w3.org/2000/svg" xml:space="preserve" width="3.33796in" height="0.489661in" version="1.1" style="shape-rendering:geometricPrecision; text-rendering:geometricPrecision; image-rendering:optimizeQuality; fill-rule:evenodd; clip-rule:evenodd"
viewBox="0 0 1531.99 224.74"
 xmlns:xlink="http://www.w3.org/1999/xlink"
 xmlns:xodm="http://www.corel.com/coreldraw/odm/2003">
 <defs>
  <style type="text/css">
   <![CDATA[
    .fil0 {fill:#102C3A;fill-rule:nonzero}
    .fil4 {fill:url(#id0)}
    .fil3 {fill:url(#id1)}
    .fil1 {fill:url(#id2)}
    .fil2 {fill:url(#id3)}
   ]]>
  </style>
  <linearGradient id="id0" gradientUnits="userSpaceOnUse" x1="271.86" y1="36.24" x2="262.98" y2="197.18">
   <stop offset="0" style="stop-opacity:1; stop-color:#7A180D"/>
   <stop offset="0.501961" style="stop-opacity:1; stop-color:#ED2226"/>
   <stop offset="1" style="stop-opacity:1; stop-color:#F42328"/>
  </linearGradient>
  <linearGradient id="id1" gradientUnits="userSpaceOnUse" x1="86.83" y1="215.36" x2="264.47" y2="26.96">
   <stop offset="0" style="stop-opacity:1; stop-color:#871F1C"/>
   <stop offset="0.501961" style="stop-opacity:1; stop-color:#F0282B"/>
   <stop offset="1" style="stop-opacity:1; stop-color:#E52F24"/>
  </linearGradient>
  <linearGradient id="id2" gradientUnits="userSpaceOnUse" x1="125.98" y1="164.28" x2="-1.44" y2="20.76">
   <stop offset="0" style="stop-opacity:1; stop-color:#FF2125"/>
   <stop offset="1" style="stop-opacity:1; stop-color:#BF2425"/>
  </linearGradient>
  <linearGradient id="id3" gradientUnits="userSpaceOnUse" x1="275.91" y1="219.34" x2="443.96" y2="20.36">
   <stop offset="0" style="stop-opacity:1; stop-color:#851919"/>
   <stop offset="0.501961" style="stop-opacity:1; stop-color:#EE2629"/>
   <stop offset="1" style="stop-opacity:1; stop-color:#F42829"/>
  </linearGradient>
 </defs>
 <g id="Layer_x0020_1">
  <metadata id="CorelCorpID_0Corel-Layer"/>
  <g id="_2707994553632">
   <g>
    <path class="fil0" d="M579.09 147.1c0,0.37 -0.28,4.68 -0.83,12.95l-108.54 0c2.2,7.71 6.47,13.64 12.81,17.77 6.34,4.13 14.28,6.2 23.83,6.2 7.16,0 13.36,-1.01 18.59,-3.03 5.23,-2.02 10.51,-5.33 15.84,-9.92l27.55 28.65c-14.51,16.16 -35.72,24.24 -63.63,24.24 -17.45,0 -32.78,-3.3 -46,-9.92 -13.22,-6.61 -23.46,-15.79 -30.72,-27.55 -7.25,-11.75 -10.88,-25.07 -10.88,-39.94 0,-14.69 3.54,-27.87 10.61,-39.53 7.07,-11.66 16.85,-20.8 29.34,-27.41 12.49,-6.61 26.54,-9.92 42.15,-9.92 14.87,0 28.37,3.08 40.5,9.23 12.12,6.15 21.72,15.06 28.79,26.72 7.07,11.66 10.61,25.48 10.61,41.46zm-79.61 -40.22c-8.08,0 -14.83,2.29 -20.25,6.89 -5.42,4.59 -8.86,10.84 -10.33,18.73l61.16 0c-1.47,-7.9 -4.91,-14.14 -10.33,-18.73 -5.42,-4.59 -12.17,-6.89 -20.25,-6.89z"/>
    <path id="_1" class="fil0" d="M685.08 69.7c13.59,0 25.94,3.12 37.05,9.37 11.11,6.24 19.93,15.2 26.45,26.86 6.52,11.66 9.78,25.21 9.78,40.63 0,15.43 -3.26,29.02 -9.78,40.77 -6.52,11.75 -15.34,20.8 -26.45,27.13 -11.11,6.34 -23.46,9.5 -37.05,9.5 -19.65,0 -34.34,-5.78 -44.08,-17.36l0 14.88 -49.86 0 0 -204.4 52.34 0 0 68.04c10.1,-10.29 23.97,-15.43 41.6,-15.43zm-11.02 112.67c9.18,0 16.71,-3.17 22.59,-9.5 5.88,-6.34 8.82,-15.11 8.82,-26.31 0,-11.02 -2.94,-19.65 -8.82,-25.9 -5.88,-6.24 -13.41,-9.37 -22.59,-9.37 -9.18,0 -16.71,3.12 -22.59,9.37 -5.88,6.24 -8.81,14.88 -8.81,25.9 0,11.2 2.94,19.97 8.81,26.31 5.88,6.34 13.41,9.5 22.59,9.5z"/>
    <path id="_2" class="fil0" d="M861.03 28.65c17.45,0 32.6,2.89 45.46,8.68 12.85,5.78 22.77,14.05 29.75,24.79 6.98,10.74 10.47,23.37 10.47,37.88 0,14.51 -3.49,27.09 -10.47,37.74 -6.98,10.65 -16.9,18.87 -29.75,24.65 -12.86,5.79 -28.01,8.68 -45.46,8.68l-33.61 0 0 50.41 -54.54 0 0 -192.83 88.15 0zm-3.3 99.45c11.2,0 19.65,-2.43 25.34,-7.3 5.69,-4.87 8.54,-11.8 8.54,-20.8 0,-9 -2.85,-15.98 -8.54,-20.94 -5.69,-4.96 -14.14,-7.44 -25.34,-7.44l-30.3 0 0 56.47 30.3 0z"/>
    <path id="_3" class="fil0" d="M959.85 72.17l52.34 0 0 149.31 -52.34 0 0 -149.31zm26.17 -16.53c-9.55,0 -17.26,-2.66 -23.14,-7.99 -5.88,-5.33 -8.82,-11.94 -8.82,-19.83 0,-7.9 2.94,-14.51 8.82,-19.83 5.88,-5.33 13.59,-7.99 23.14,-7.99 9.55,0 17.26,2.53 23.14,7.58 5.88,5.05 8.82,11.52 8.82,19.42 0,8.26 -2.94,15.1 -8.82,20.52 -5.88,5.42 -13.59,8.13 -23.14,8.13z"/>
    <polygon id="_4" class="fil0" points="1033.88,17.08 1086.22,17.08 1086.22,221.48 1033.88,221.48 "/>
    <path id="_5" class="fil0" d="M1182.84 223.96c-15.98,0 -30.39,-3.3 -43.25,-9.92 -12.85,-6.61 -22.91,-15.79 -30.16,-27.55 -7.25,-11.75 -10.88,-25.07 -10.88,-39.94 0,-14.69 3.63,-27.92 10.88,-39.67 7.25,-11.75 17.26,-20.89 30.03,-27.41 12.76,-6.52 27.23,-9.78 43.39,-9.78 16.16,0 30.67,3.26 43.52,9.78 12.86,6.52 22.86,15.61 30.03,27.27 7.16,11.66 10.74,24.93 10.74,39.81 0,14.88 -3.58,28.19 -10.74,39.94 -7.16,11.75 -17.17,20.94 -30.03,27.55 -12.85,6.61 -27.36,9.92 -43.52,9.92zm0 -41.6c9.18,0 16.71,-3.17 22.59,-9.5 5.88,-6.34 8.81,-15.11 8.81,-26.31 0,-11.02 -2.94,-19.65 -8.81,-25.9 -5.88,-6.24 -13.41,-9.37 -22.59,-9.37 -9.18,0 -16.71,3.12 -22.59,9.37 -5.88,6.24 -8.81,14.88 -8.81,25.9 0,11.2 2.94,19.97 8.81,26.31 5.88,6.34 13.41,9.5 22.59,9.5z"/>
    <path id="_6" class="fil0" d="M1382.21 215.42c-4.41,2.76 -9.78,4.87 -16.12,6.34 -6.34,1.47 -13.08,2.2 -20.25,2.2 -19.47,0 -34.43,-4.77 -44.9,-14.33 -10.47,-9.55 -15.7,-23.78 -15.7,-42.7l0 -50.14 -21.76 0 0 -39.12 21.76 0 0 -38.84 52.34 0 0 38.84 34.16 0 0 39.12 -34.16 0 0 49.59c0,5.33 1.42,9.5 4.27,12.53 2.85,3.03 6.66,4.54 11.43,4.54 6.06,0 11.39,-1.56 15.98,-4.68l12.95 36.64z"/>
    <path id="_7" class="fil0" d="M1458.17 223.96c-12.49,0 -24.79,-1.42 -36.91,-4.27 -12.12,-2.85 -21.85,-6.56 -29.2,-11.16l15.7 -35.81c6.8,4.22 14.88,7.58 24.24,10.06 9.37,2.48 18.64,3.72 27.82,3.72 8.45,0 14.46,-0.87 18.04,-2.62 3.58,-1.75 5.37,-4.27 5.37,-7.58 0,-3.3 -2.16,-5.65 -6.47,-7.02 -4.31,-1.38 -11.16,-2.71 -20.52,-4 -11.94,-1.47 -22.08,-3.4 -30.44,-5.78 -8.36,-2.39 -15.56,-6.8 -21.63,-13.22 -6.06,-6.43 -9.09,-15.43 -9.09,-27 0,-9.55 2.85,-18.04 8.54,-25.48 5.69,-7.44 14,-13.32 24.93,-17.63 10.93,-4.31 24.01,-6.47 39.26,-6.47 10.84,0 21.58,1.1 32.23,3.31 10.65,2.2 19.56,5.33 26.72,9.37l-15.7 35.54c-13.22,-7.35 -27.55,-11.02 -42.97,-11.02 -8.26,0 -14.33,0.96 -18.18,2.89 -3.86,1.93 -5.79,4.45 -5.79,7.58 0,3.49 2.11,5.92 6.34,7.3 4.22,1.38 11.2,2.8 20.94,4.27 12.31,1.84 22.5,3.95 30.58,6.34 8.08,2.39 15.1,6.75 21.07,13.08 5.97,6.34 8.95,15.2 8.95,26.58 0,9.37 -2.85,17.77 -8.54,25.21 -5.69,7.44 -14.09,13.27 -25.2,17.49 -11.11,4.22 -24.47,6.34 -40.08,6.34z"/>
   </g>
   <g>
    <path class="fil1" d="M58.99 179.32c4.05,10.77 9.54,19.76 16.51,26.83l0 0c25.66,11.69 50.84,-70.57 54.71,-83.81 -0.83,-1.95 -1.27,-2.9 -3.02,-7.39 0,0 0,0 0,0 -7.36,-18.93 -13.04,-38.53 -21.89,-56.88l0 0c-10.04,-20.81 -25.38,-34.8 -49.36,-37.5l0 0c-10.8,-1.22 -21.61,-1.08 -32.72,-0.94l0 0c-7.57,0.09 -15.28,0.19 -23.22,-0.15l0 0c19.98,54.25 39.18,107.15 58.99,159.82l0 0z"/>
    <path class="fil2" d="M395.98 20.07c-27.91,1.55 -47.2,15.72 -57.34,41.94l0 0c-6.73,17.43 -13.38,34.88 -20.11,52.31 0,0 0,0 0,0 -1.44,3.2 -3.09,5.33 -4.48,7.6 -4.12,14.09 -29.12,95.5 -54.28,84.58l0 0c6.04,6.52 13.48,11.59 23.25,14.24l0 0c16.85,4.57 33.78,5.31 50.74,1.7l0 0c25.51,-5.43 39.15,-23.51 48.14,-46.37l0 0c16.46,-41.85 33.07,-83.64 49.6,-125.46l0 0c3.96,-10.02 7.81,-20.08 11.93,-30.71 -10.27,0 -20.15,-0.27 -29.85,-0.27l0 0c-5.91,0 -11.76,0.1 -17.59,0.43l0 0z"/>
    <path class="fil3" d="M153.17 66.39c-7.28,15.88 -15.77,40.68 -22.97,55.99 -3.9,13.35 -29.07,95.45 -54.7,83.77l0 0c10.92,11.1 25.5,17.44 44.05,18.29l0 0c37.48,1.72 63.45,-7.9 78.03,-46.91l0 0c5.97,-15.98 12.36,-31.82 18.71,-47.66 0,0 0,0 0,0 3.19,-6.6 4.79,-10.15 7.53,-16.73 8.49,-26.05 32.02,-90.15 53.5,-74.57 -6.4,-7.12 -14.56,-12.49 -25.47,-14.9l0 0c-6.84,-1.51 -13.8,-2.8 -20.77,-3.34l0 0c-3.88,-0.3 -7.67,-0.46 -11.33,-0.46l0 0c-31.21,-0 -54.09,11.61 -66.58,46.52l0 0z"/>
    <path class="fil4" d="M224.48 130.16c0,0 0,0 0,0 7.44,18.61 12.85,38.03 21.85,56.01l0 0c3.76,7.51 8.04,14.5 13.44,20.34l0 0c25.11,10.9 50.07,-70.19 54.26,-84.5 -0.8,-2.16 -1.63,-3.94 -3.12,-7.84 0,0 0,0 0,0 -6.34,-17.02 -11.97,-34.34 -18.99,-51.07l0 0c-3.82,-9.09 -8.38,-17.63 -14.59,-24.52l0 0c-2.28,-1.65 -4.58,-2.41 -6.88,-2.41l0 0c-19.04,-0.01 -38.27,51.63 -46.16,75.59 -1.16,3.52 -2.83,6.35 -3.46,8.42 1.77,6.25 1.64,4.95 3.66,9.98z"/>
   </g>
  </g>
 </g>
</svg>
