<?xml version="1.0" encoding="UTF-8"?>
<!DOCTYPE svg PUBLIC "-//W3C//DTD SVG 1.1//EN" "http://www.w3.org/Graphics/SVG/1.1/DTD/svg11.dtd">
<!-- Creator: CorelDRAW 2020 (64-Bit) -->
<svg xmlns="http://www.w3.org/2000/svg" xml:space="preserve" width="1000px" height="146px" version="1.1" style="shape-rendering:geometricPrecision; text-rendering:geometricPrecision; image-rendering:optimizeQuality; fill-rule:evenodd; clip-rule:evenodd"
viewBox="0 0 450.577 65.445"
 xmlns:xlink="http://www.w3.org/1999/xlink"
 xmlns:xodm="http://www.corel.com/coreldraw/odm/2003">
 <defs>
  <style type="text/css">
   <![CDATA[
    .fil1 {fill:#E6E6E6;fill-rule:nonzero}
    .fil0 {fill:#F02227;fill-rule:nonzero}
    .fil5 {fill:url(#id0)}
    .fil4 {fill:url(#id1)}
    .fil2 {fill:url(#id2)}
    .fil3 {fill:url(#id3)}
   ]]>
  </style>
  <linearGradient id="id0" gradientUnits="userSpaceOnUse" x1="81.446" y1="8.544" x2="78.783" y2="56.758">
   <stop offset="0" style="stop-opacity:1; stop-color:#7A180D"/>
   <stop offset="0.501961" style="stop-opacity:1; stop-color:#ED2226"/>
   <stop offset="1" style="stop-opacity:1; stop-color:#F42328"/>
  </linearGradient>
  <linearGradient id="id1" gradientUnits="userSpaceOnUse" x1="26.013" y1="62.206" x2="79.23" y2="5.762">
   <stop offset="0" style="stop-opacity:1; stop-color:#871F1C"/>
   <stop offset="0.501961" style="stop-opacity:1; stop-color:#F0282B"/>
   <stop offset="1" style="stop-opacity:1; stop-color:#E52F24"/>
  </linearGradient>
  <linearGradient id="id2" gradientUnits="userSpaceOnUse" x1="37.742" y1="46.901" x2="-0.433" y2="3.907">
   <stop offset="0" style="stop-opacity:1; stop-color:#FF2125"/>
   <stop offset="1" style="stop-opacity:1; stop-color:#BF2425"/>
  </linearGradient>
  <linearGradient id="id3" gradientUnits="userSpaceOnUse" x1="82.66" y1="63.398" x2="133.003" y2="3.786">
   <stop offset="0" style="stop-opacity:1; stop-color:#851919"/>
   <stop offset="0.501961" style="stop-opacity:1; stop-color:#EE2629"/>
   <stop offset="1" style="stop-opacity:1; stop-color:#F42829"/>
  </linearGradient>
 </defs>
 <g id="Layer_x0020_1">
  <metadata id="CorelCorpID_0Corel-Layer"/>
  <g id="_1510091549936">
   <path class="fil0" d="M147.986 19.146c-14.195,0 -23.686,9.161 -23.686,23.191 0,13.782 9.161,22.86 24.181,22.86 8.5,0 15.268,-2.888 19.972,-8.087l-8.666 -8.501c-2.971,2.724 -6.355,4.291 -9.903,4.291 -4.292,0 -7.428,-2.393 -8.748,-6.684l30.205 0c0.99,-16.506 -7.592,-27.07 -23.355,-27.07zm6.932 18.899l-14.112 0c0.825,-4.539 3.383,-7.592 7.345,-7.592 4.043,0 6.85,3.136 6.767,7.592z"/>
   <path id="1" class="fil0" d="M203.64 19.146c-5.035,0 -9.326,2.064 -12.297,5.777l0 -21.54 -16.671 0 0 61.236 16.671 0 0 -5.199c3.053,3.714 7.427,5.777 12.709,5.777 12.379,0 20.384,-8.995 20.384,-22.777 0,-14.031 -8.252,-23.274 -20.796,-23.274zm-4.209 32.846c-4.787,0 -8.088,-4.043 -8.088,-9.985 0,-5.942 3.301,-9.986 8.088,-9.986 4.951,0 8.17,4.044 8.17,9.986 0,5.942 -3.219,9.985 -8.17,9.985z"/>
   <path class="fil1" d="M253.351 6.767l-26.244 0 0 57.852 17.166 0 0 -15.597 9.078 0c14.938,0 23.521,-7.923 23.521,-21.705 0,-13.122 -8.583,-20.55 -23.521,-20.55zm-0.825 29.05l-8.253 0 0 -15.845 8.253 0c5.116,0 8.088,2.805 8.088,7.84 0,5.199 -2.972,8.005 -8.088,8.005z"/>
   <path id="1" class="fil1" d="M288.29 0c-4.209,0 -7.097,2.971 -7.097,7.18 0,4.044 2.888,7.015 7.097,7.015 4.209,0 7.098,-2.971 7.098,-7.015 0,-4.209 -2.889,-7.18 -7.098,-7.18zm-8.417 19.724l0 44.895 16.67 0 0 -44.895 -16.67 0z"/>
   <polygon id="2" class="fil1" points="303.257,3.383 303.257,64.619 319.928,64.619 319.928,3.383 "/>
   <path id="3" class="fil1" d="M348.265 19.146c-15.103,0 -25.006,9.078 -25.006,23.026 0,13.865 9.903,23.025 25.006,23.025 15.103,0 24.923,-9.16 24.923,-23.025 0,-13.948 -9.82,-23.026 -24.923,-23.026zm0 13.205c4.869,0 8.088,4.044 8.088,9.986 0,6.024 -3.219,9.986 -8.088,9.986 -4.952,0 -8.171,-3.962 -8.171,-9.986 0,-5.942 3.219,-9.986 8.171,-9.986z"/>
   <path id="4" class="fil1" d="M403.754 51.002c-1.981,0.743 -3.796,1.321 -5.117,1.321 -2.311,0 -3.797,-1.403 -3.797,-4.291l0 -15.351 11.059 0 0 -10.646 -11.059 0 0 -12.462 -16.587 0 0 12.462 -6.19 0 0 10.646 6.19 0 0 17.909c0,9.325 6.437,14.855 16.01,14.772 4.539,0 9.326,-1.073 12.462,-2.888l-2.971 -11.472z"/>
   <path id="5" class="fil1" d="M445.048 34.909l5.529 -10.481c-6.107,-3.548 -12.957,-5.447 -19.724,-5.447 -11.307,0 -19.147,5.612 -19.147,15.02 0,15.351 22.943,12.875 22.943,17.991 0,1.404 -1.485,2.064 -3.714,2.064 -4.951,0 -10.646,-1.898 -16.258,-5.53l-5.117 10.481c5.86,4.209 13.205,6.355 21.128,6.355 11.718,0 19.724,-5.612 19.724,-14.855 0,-15.35 -23.438,-13.122 -23.438,-18.156 0,-1.403 1.321,-2.146 3.384,-2.146 3.549,0 8.582,1.568 14.69,4.704z"/>
   <g>
    <path class="fil2" d="M17.673 51.409c1.214,3.227 2.859,5.919 4.946,8.037l0 0c7.686,3.502 15.232,-21.141 16.39,-25.107 -0.249,-0.583 -0.381,-0.869 -0.904,-2.213 0,0 0,0 0,0 -2.205,-5.672 -3.908,-11.543 -6.559,-17.039l0 0c-3.007,-6.236 -7.603,-10.426 -14.786,-11.233l0 0c-3.236,-0.365 -6.473,-0.323 -9.802,-0.282l0 0c-2.267,0.028 -4.577,0.057 -6.958,-0.044l0 0c5.987,16.253 11.738,32.102 17.673,47.881l0 0z"/>
    <path class="fil3" d="M118.629 3.698c-8.36,0.465 -14.14,4.709 -17.177,12.566l0 0c-2.017,5.221 -4.01,10.451 -6.024,15.672 0,0 0,0 0,0 -0.431,0.958 -0.927,1.598 -1.344,2.278 -1.233,4.221 -8.724,28.61 -16.262,25.34l0 0c1.808,1.953 4.039,3.472 6.967,4.266l0 0c5.047,1.369 10.12,1.59 15.2,0.509l0 0c7.643,-1.626 11.728,-7.043 14.422,-13.891l0 0c4.931,-12.538 9.908,-25.057 14.858,-37.587l0 0c1.186,-3.002 2.339,-6.016 3.573,-9.199 -3.077,0 -6.036,-0.081 -8.942,-0.081l0 0c-1.771,0 -3.523,0.03 -5.271,0.127l0 0z"/>
    <path class="fil4" d="M45.888 17.576c-2.18,4.756 -4.724,12.186 -6.882,16.774 -1.169,3.999 -8.708,28.595 -16.387,25.096l0 0c3.272,3.324 7.639,5.225 13.198,5.48l0 0c11.228,0.516 19.009,-2.365 23.378,-14.053l0 0c1.789,-4.788 3.702,-9.531 5.605,-14.278 0,0 0,0 0,0 0.956,-1.978 1.434,-3.042 2.255,-5.012 2.544,-7.805 9.592,-27.007 16.028,-22.34 -1.919,-2.133 -4.362,-3.742 -7.632,-4.465l0 0c-2.05,-0.453 -4.135,-0.838 -6.223,-1l0 0c-1.164,-0.09 -2.297,-0.138 -3.393,-0.138l0 0c-9.35,-0.001 -16.206,3.479 -19.947,13.936l0 0z"/>
    <path class="fil5" d="M67.25 36.682c0,0 0,0 0,0 2.228,5.576 3.849,11.394 6.546,16.779l0 0c1.127,2.25 2.408,4.345 4.026,6.093l0 0c7.524,3.264 15.001,-21.028 16.255,-25.316 -0.238,-0.649 -0.488,-1.181 -0.934,-2.349 0,0 0,0 0,0 -1.899,-5.1 -3.586,-10.287 -5.69,-15.299l0 0c-1.144,-2.724 -2.512,-5.281 -4.37,-7.347l0 0c-0.683,-0.495 -1.373,-0.721 -2.063,-0.722l0 0c-5.705,-0.002 -11.464,15.468 -13.828,22.647 -0.348,1.054 -0.847,1.902 -1.037,2.523 0.531,1.872 0.492,1.482 1.095,2.991z"/>
   </g>
  </g>
 </g>
</svg>
